<svg width="247" height="28" viewBox="0 0 247 28" fill="none" xmlns="http://www.w3.org/2000/svg">
<path d="M7.79 27.208V7.562H0V0.607999H24.548V7.562H16.758V27.208H7.79Z" fill="white"/>
<path d="M40.4902 27.816C38.3115 27.816 36.2975 27.474 34.4482 26.79C32.6242 26.106 31.0409 25.1433 29.6982 23.902C28.3555 22.6353 27.3042 21.1533 26.5442 19.456C25.8095 17.7587 25.4422 15.9093 25.4422 13.908C25.4422 11.8813 25.8095 10.032 26.5442 8.36C27.3042 6.66267 28.3555 5.19333 29.6982 3.952C31.0409 2.68533 32.6242 1.71 34.4482 1.026C36.2975 0.342 38.2989 0 40.4522 0C42.6309 0 44.6322 0.342 46.4562 1.026C48.2802 1.71 49.8635 2.68533 51.2062 3.952C52.5489 5.19333 53.5875 6.66267 54.3222 8.36C55.0822 10.032 55.4622 11.8813 55.4622 13.908C55.4622 15.9093 55.0822 17.7587 54.3222 19.456C53.5875 21.1533 52.5489 22.6353 51.2062 23.902C49.8635 25.1433 48.2802 26.106 46.4562 26.79C44.6322 27.474 42.6435 27.816 40.4902 27.816ZM40.4522 20.558C41.2882 20.558 42.0609 20.406 42.7702 20.102C43.5049 19.798 44.1382 19.3673 44.6702 18.81C45.2275 18.2273 45.6582 17.5307 45.9622 16.72C46.2662 15.884 46.4182 14.9467 46.4182 13.908C46.4182 12.8693 46.2662 11.9447 45.9622 11.134C45.6582 10.298 45.2275 9.60133 44.6702 9.044C44.1382 8.46133 43.5049 8.018 42.7702 7.714C42.0609 7.41 41.2882 7.258 40.4522 7.258C39.6162 7.258 38.8309 7.41 38.0962 7.714C37.3869 8.018 36.7535 8.46133 36.1962 9.044C35.6642 9.60133 35.2462 10.298 34.9422 11.134C34.6382 11.9447 34.4862 12.8693 34.4862 13.908C34.4862 14.9467 34.6382 15.884 34.9422 16.72C35.2462 17.5307 35.6642 18.2273 36.1962 18.81C36.7535 19.3673 37.3869 19.798 38.0962 20.102C38.8309 20.406 39.6162 20.558 40.4522 20.558Z" fill="white"/>
<path d="M66.7351 21.508L66.2411 11.666L76.2731 0.607999H86.0391L74.7911 12.996L69.8131 18.088L66.7351 21.508ZM58.7171 27.208V0.607999H67.5331V27.208H58.7171ZM76.1971 27.208L68.3691 16.872L74.1831 10.716L86.5711 27.208H76.1971Z" fill="white"/>
<path d="M95.9818 10.488H107.838V16.948H95.9818V10.488ZM96.5898 20.444H109.89V27.208H87.7738V0.607999H109.396V7.372H96.5898V20.444Z" fill="white"/>
<path d="M113.342 27.208V0.607999H120.714L134.242 16.796H130.822V0.607999H139.562V27.208H132.19L118.662 11.02H122.082V27.208H113.342Z" fill="white"/>
<path d="M169.032 27.816C166.904 27.816 164.928 27.4867 163.104 26.828C161.305 26.144 159.734 25.1813 158.392 23.94C157.074 22.6987 156.048 21.2293 155.314 19.532C154.579 17.8347 154.212 15.96 154.212 13.908C154.212 11.856 154.579 9.98133 155.314 8.284C156.048 6.58667 157.074 5.11733 158.392 3.876C159.734 2.63467 161.305 1.68467 163.104 1.026C164.928 0.342 166.904 0 169.032 0C171.641 0 173.946 0.456 175.948 1.368C177.974 2.28 179.646 3.59733 180.964 5.32L175.302 10.374C174.516 9.386 173.642 8.626 172.68 8.094C171.742 7.53667 170.678 7.258 169.488 7.258C168.55 7.258 167.702 7.41 166.942 7.714C166.182 8.018 165.523 8.46133 164.966 9.044C164.434 9.62667 164.016 10.336 163.712 11.172C163.408 11.9827 163.256 12.8947 163.256 13.908C163.256 14.9213 163.408 15.846 163.712 16.682C164.016 17.4927 164.434 18.1893 164.966 18.772C165.523 19.3547 166.182 19.798 166.942 20.102C167.702 20.406 168.55 20.558 169.488 20.558C170.678 20.558 171.742 20.292 172.68 19.76C173.642 19.2027 174.516 18.43 175.302 17.442L180.964 22.496C179.646 24.1933 177.974 25.5107 175.948 26.448C173.946 27.36 171.641 27.816 169.032 27.816Z" fill="white"/>
<path d="M183.553 27.208V0.607999H192.521V27.208H183.553Z" fill="white"/>
<path d="M202.614 27.208V7.562H194.824V0.607999H219.372V7.562H211.582V27.208H202.614Z" fill="white"/>
<path d="M227.799 27.208V15.542L229.851 20.9L217.767 0.607999H227.229L235.399 14.478H229.889L238.135 0.607999H246.799L234.791 20.9L236.767 15.542V27.208H227.799Z" fill="white"/>
</svg>
